<svg width="256" height="256" viewBox="0 0 256 256" fill="none" xmlns="http://www.w3.org/2000/svg">
<path d="M256 128C256 153.316 248.493 178.064 234.428 199.113C220.363 220.163 200.372 236.569 176.983 246.257C153.594 255.945 127.858 258.479 103.028 253.54C78.1987 248.602 55.3913 236.411 37.4902 218.51C19.5891 200.608 7.39832 177.801 2.45945 152.971C-2.47943 128.142 0.0554438 102.405 9.74351 79.0163C19.4316 55.6274 35.8377 35.6365 56.8872 21.5717C77.9368 7.50696 102.684 -6.06596e-05 128 3.67441e-10L128 34.56C109.52 34.56 91.4538 40.0401 76.0877 50.3074C60.7215 60.5747 48.745 75.168 41.6728 92.2419C34.6005 109.316 32.75 128.104 36.3554 146.229C39.9608 164.355 48.8601 181.004 61.9279 194.072C74.9957 207.14 91.6451 216.039 109.771 219.645C127.896 223.25 146.684 221.4 163.758 214.327C180.832 207.255 195.425 195.279 205.693 179.913C215.96 164.546 221.44 146.481 221.44 128H256Z" fill="#818CF8"/>
</svg>
